<svg width="296" height="49" viewBox="0 0 296 49" fill="none" xmlns="http://www.w3.org/2000/svg">
<g clip-path="url(#clip0_7815_10187)">
<path fill-rule="evenodd" clip-rule="evenodd" d="M22.4407 31.5573C22.4407 28.1802 20.9064 25.2034 18.2072 23.3949C16.3465 22.1874 13.6492 21.4652 10.5312 21.4652C9.46142 21.4652 8.43827 21.5445 7.60071 21.6238V42.0125C7.60071 42.174 7.69398 42.2542 7.83389 42.2542C8.57817 42.3354 9.60133 42.3746 10.4389 42.3746C13.2295 42.3746 15.9744 41.6915 17.9759 40.2843C20.6266 38.4338 22.4407 35.5793 22.4407 31.5975V31.5573ZM29.7446 31.3968C29.7446 37.2674 26.953 41.7708 22.2541 44.7075C18.9049 46.8389 14.4392 47.8028 9.27582 47.8028C7.32184 47.8028 5.22795 47.7627 3.74034 47.7226C2.484 47.6824 1.08871 47.6423 0.0189209 47.5621V47.3614C0.669931 46.9994 0.669931 45.511 0.669931 33.8091V29.3859C0.669931 18.4884 0.669931 17.1213 0.0655576 16.8404V16.4382C1.04302 16.3971 2.484 16.2768 4.39135 16.2357C6.34533 16.1564 8.06612 16.1153 9.92778 16.1153C15.1368 16.1153 19.1371 17 22.2075 18.6498C27.5108 21.4241 29.7446 26.4501 29.7446 31.3567V31.3968ZM53.8592 36.6652L53.8126 36.5439C51.161 30.552 50.509 28.863 50.1378 27.6975H50.0912C49.6724 28.863 48.9748 30.552 46.2299 36.5439L46.1842 36.6652H53.8592ZM44.0903 41.4495C42.1372 45.5517 41.392 47.2006 41.8574 47.4414V47.6831H37.8105H33.6694V47.4414C34.1814 47.2006 35.0656 45.5517 40.9732 33.7687L49.9056 15.7539H50.9287L59.7202 33.8088C65.4889 45.5107 66.3264 47.2006 66.8385 47.4414V47.6831H62.744H58.0451V47.4414C58.5105 47.2006 57.7662 45.5107 55.9055 41.4495H44.0903ZM83.061 33.8092C83.061 45.511 83.061 46.9593 83.712 47.4408V47.6825H79.6651H75.4316V47.4007C76.0836 46.9593 76.0836 45.5111 76.0836 33.8502V29.386C76.0836 18.4885 76.0836 17.0001 75.4783 16.5988V16.317H79.5728H83.6654V16.5988C83.061 17.0001 83.061 18.4483 83.061 29.386V33.8092ZM97.4621 29.3858C97.4621 18.4883 97.4621 17.0008 96.8568 16.5986V16.3168H101.044H104.997V16.5986C104.393 17.0409 104.393 18.4883 104.393 29.3858V33.7287V42.2131C104.393 42.4949 104.486 42.5761 104.813 42.5761H112.348C113.418 42.5761 113.976 42.5359 114.581 42.4557C115.092 42.3745 115.697 42.2131 115.837 42.0535H116.208C116.162 44.4657 116.162 45.5109 116.116 47.6823H107.09H96.8568V47.3613C97.4621 47.0394 97.4621 45.4707 97.4621 33.809V29.3858ZM137.82 34.735V35.8194C137.82 45.431 137.82 47.1191 138.473 47.441V47.6827H134.425H130.192V47.4009C130.843 47.0799 130.843 45.431 130.843 35.9006V35.0561L127.54 29.9488C120.097 18.4084 119.167 16.8799 118.516 16.5579V16.3172H123.075H127.448V16.5579C126.935 16.8397 128.005 18.5288 130.612 22.7103C131.959 24.9629 133.448 27.335 134.379 28.9839H134.472C135.355 27.335 136.797 25.1234 138.239 22.8316C140.937 18.5288 142.007 16.7586 141.542 16.5579V16.3172H146.148H149.915V16.5579C149.358 16.8799 148.473 18.3683 140.937 29.9488L137.82 34.735Z" fill="#0A0909"/>
<path fill-rule="evenodd" clip-rule="evenodd" d="M224.15 33.8095C224.15 45.5114 224.15 46.9597 224.802 47.4412V47.6829H220.755H216.522V47.4011C217.173 46.9597 217.173 45.5114 217.173 33.8506V29.3863C217.173 18.4888 217.173 17.0004 216.569 16.5992V16.3173H220.662H224.756V16.5992C224.15 17.0004 224.15 18.4487 224.15 29.3863V33.8095ZM253.288 25.8074C253.288 22.9109 251.101 21.2237 247.613 21.2237C246.821 21.2237 246.17 21.2629 245.751 21.304V30.8745C246.124 30.9147 246.636 30.9147 247.101 30.9147C248.403 30.9147 249.705 30.5927 250.635 30.1103C251.938 29.4673 253.288 28.0993 253.288 25.8476V25.8074ZM239.146 29.3861C239.146 18.4886 239.146 16.8005 238.588 16.6391V16.3974C239.379 16.3573 240.682 16.3172 241.983 16.277C243.1 16.236 245.147 16.1968 246.356 16.1968C249.008 16.1968 251.286 16.3974 253.335 16.961C256.219 17.7645 260.172 20.0974 260.172 25.4454C260.172 29.1855 257.939 31.5977 256.265 32.6438C255.381 33.2466 254.358 33.8093 253.567 34.051V34.1313C254.218 34.9357 255.009 35.9006 261.986 44.2655C263.104 45.5915 264.545 47.2012 265.01 47.4419V47.6827H261.009H258.032C257.613 47.6827 257.008 47.6426 256.544 47.5222C253.846 44.0238 250.682 39.9216 247.007 35.2576H245.751V36.8664C245.751 45.5112 245.798 47.2012 246.31 47.4419V47.6827H242.495H238.588V47.4419C239.146 47.2012 239.146 45.5112 239.146 33.8093V29.3861ZM276.239 29.3861C276.239 18.4886 276.239 16.8005 275.682 16.5588V16.3172H285.263H294.706C294.706 18.1275 294.661 19.5338 294.661 21.9059H294.382C294.055 21.4654 291.962 21.3441 289.124 21.3441H283.17V29.2658H289.078C291.962 29.2658 292.846 29.2247 293.172 28.9438H293.404V31.678V34.6147H293.172C292.846 34.2927 291.916 34.2517 289.171 34.2517H283.17V41.8514C283.17 42.2134 283.217 42.4159 283.496 42.5764C285.915 42.6166 289.124 42.6166 291.265 42.5764C293.219 42.5764 294.474 42.4952 294.846 42.093H295.126C295.08 44.5062 295.08 45.8332 295.08 47.6827H286.008H275.634V47.4419C276.239 47.2012 276.239 45.5112 276.239 33.8093V29.3861Z" fill="#0A0909"/>
<mask id="mask0_7815_10187" style="mask-type:luminance" maskUnits="userSpaceOnUse" x="0" y="0" width="296" height="49">
<path fill-rule="evenodd" clip-rule="evenodd" d="M0 48.2857H295.14V0H0V48.2857Z" fill="white"/>
</mask>
<g mask="url(#mask0_7815_10187)">
<path fill-rule="evenodd" clip-rule="evenodd" d="M0 3.71985H110.952V2.89307H0V3.71985Z" fill="#0A0909"/>
</g>
<mask id="mask1_7815_10187" style="mask-type:luminance" maskUnits="userSpaceOnUse" x="0" y="0" width="296" height="49">
<path fill-rule="evenodd" clip-rule="evenodd" d="M0 48.2857H295.14V0H0V48.2857Z" fill="white"/>
</mask>
<g mask="url(#mask1_7815_10187)">
<path fill-rule="evenodd" clip-rule="evenodd" d="M185.758 3.71985H295.136V2.89307H185.758V3.71985Z" fill="#0A0909"/>
</g>
<mask id="mask2_7815_10187" style="mask-type:luminance" maskUnits="userSpaceOnUse" x="0" y="0" width="296" height="49">
<path fill-rule="evenodd" clip-rule="evenodd" d="M0 48.2857H295.14V0H0V48.2857Z" fill="white"/>
</mask>
<g mask="url(#mask2_7815_10187)">
<path fill-rule="evenodd" clip-rule="evenodd" d="M127.36 1.07361H126.11C125.821 1.07361 125.609 1.1072 125.514 1.21078H125.444V0.000466583H127.553H128.429H130.583V1.21078H130.522C130.408 1.1072 130.206 1.07361 129.926 1.07361H128.665V3.73499C128.665 6.24241 128.665 6.6362 128.798 6.64647V6.69686H128.026H127.239V6.64647C127.36 6.57648 127.36 6.23308 127.36 3.73499V1.07361ZM151.148 3.73453C151.148 6.23354 151.148 6.59281 151.271 6.646V6.69733H150.518H149.711V6.646C149.835 6.59281 149.835 6.23354 149.835 4.14605V3.85491H146.919V4.14605C146.919 6.23354 146.919 6.59281 147.042 6.646V6.69733H146.281H145.491V6.646C145.615 6.59281 145.615 6.23354 145.615 3.73453V2.79016C145.615 0.464716 145.615 0.103581 145.5 0.0531904V0H146.281H147.033V0.0531904C146.919 0.103581 146.919 0.464716 146.919 2.48968V2.75564H149.835V2.48968C149.835 0.464716 149.835 0.103581 149.73 0.0531904V0H150.518H151.253V0.0531904C151.148 0.103581 151.148 0.464716 151.148 2.79016V3.73453ZM166.142 2.79044C166.142 0.464996 166.142 0.103861 166.037 0.0525372V0.00027995H167.84H169.618C169.618 0.387543 169.609 0.68709 169.609 1.1938H169.557C169.494 1.09955 169.101 1.07342 168.568 1.07342H167.447V2.76618H168.558C169.101 2.76618 169.267 2.75592 169.33 2.69619H169.373V3.28036V3.90651H169.33C169.267 3.83839 169.094 3.82999 168.577 3.82999H167.447V5.45276C167.447 5.52928 167.456 5.57128 167.508 5.60674C167.963 5.6142 168.568 5.6142 168.97 5.60674C169.337 5.60674 169.574 5.58994 169.644 5.50316H169.697C169.689 6.01826 169.689 6.30194 169.689 6.69761H167.981H166.029V6.64628C166.142 6.59309 166.142 6.23289 166.142 3.73481V2.79016Z" fill="#0A0909"/>
</g>
<path d="M164.654 17.263L174.647 49.4572L186.069 28.461L197.014 48.9906H197.966L208.911 17.263H209.387V16.7964H201.297V17.263L201.773 17.7296L196.538 34.5265L187.02 17.263H185.593L176.551 34.5265L171.316 17.263H171.792V16.7964H164.178L164.654 17.263Z" fill="#0A0909"/>
</g>
<defs>
<clipPath id="clip0_7815_10187">
<rect width="296" height="48.5246" fill="white"/>
</clipPath>
</defs>
</svg>
